# xmcd CD database file
#
# Track frame offsets:
#	150
#	20056
#	38813
#
# Disc length: 777 seconds
#
# Revision: 1
# Processed by: cddbd v1.5PL3 Copyright (c) Steve Scherf et al.
# Submitted via: CDex 1.51
#
DISCID=1e030703
DTITLE=林明日香 - もう一度あなたに会いたい
DYEAR=2003
DGENRE=JPop
TTITLE0=もう一度あなたに会いたい
TTITLE1=言葉一つ
TTITLE2=もう一度あなたに会いたい(オリジナル･カラオケ)
EXTD=YEAR: 2003
EXTT0=
EXTT1=
EXTT2=
PLAYORDER=
